<?xml version="1.0" encoding="utf-8"?>
<!-- Generator: Adobe Illustrator 22.1.0, SVG Export Plug-In . SVG Version: 6.00 Build 0)  -->
<svg version="1.1" id="Layer_1" xmlns="http://www.w3.org/2000/svg" xmlns:xlink="http://www.w3.org/1999/xlink" x="0px" y="0px"
	 viewBox="0 0 500 500" style="enable-background:new 0 0 500 500;" xml:space="preserve">
<style type="text/css">
	.st0{fill:url(#SVGID_1_);}
	.st1{fill:#FFFFFF;stroke:#EFF2F4;stroke-miterlimit:10;}
</style>
<g>
	<linearGradient id="SVGID_1_" gradientUnits="userSpaceOnUse" x1="131.6922" y1="450.633" x2="367.1728" y2="42.7686">
		<stop  offset="0" style="stop-color:#004368"/>
		<stop  offset="0.1769" style="stop-color:#0F6288"/>
		<stop  offset="0.4165" style="stop-color:#2086AC"/>
		<stop  offset="0.641" style="stop-color:#2DA0C6"/>
		<stop  offset="0.842" style="stop-color:#34B0D5"/>
		<stop  offset="1" style="stop-color:#37B5DB"/>
	</linearGradient>
	<circle class="st0" cx="249.4" cy="246.7" r="235.4"/>
	<g>
		<path class="st1" d="M365.6,87.5c0,0-1.8,0.2-5.3,0.7c-3.4,0.5-8.5,1-14.9,2c-3.2,0.7-6.7,1.5-10.6,2.3c-3.8,0.9-8.1,1.6-12.4,3.1
			c-4.4,1.3-9,2.7-13.9,4.2c-4.8,1.9-9.8,3.9-15.1,6c-5.2,2.3-10.5,5.1-16.1,7.7c-5.5,2.9-10.9,6.5-16.6,9.8
			c-5.5,3.9-11.2,7.7-16.8,12.1c-5.5,4.6-11.3,9-16.7,14.4c-2.7,2.6-5.6,5.1-8.3,7.9c-2.7,2.8-5.3,5.7-8,8.6c-2.7,2.8-5.3,5.9-7.9,9
			c-2.5,3.2-5.2,6.2-7.6,9.5c-10,13.1-19.2,27.4-27.8,42.2c-8.3,15.1-16,30.8-22.8,46.8c-6.8,16-12.7,32.2-17.9,48.2
			c-5.2,16-9.8,31.7-13.6,46.8c-4,15-7.3,29.4-10.2,42.8c-3,13.3-5.3,25.7-7.5,36.6c-2.1,10.9-3.9,20.4-5.4,28.3
			c-3,15.7-4.8,24.6-4.8,24.6s0.6-2.2,1.8-6.2c1.1-4.1,2.8-10,4.8-17.6c4-15.3,9.6-37.1,16.4-63.3c3.4-13,7.4-27,11.7-41.7
			c4.3-14.7,9.3-29.9,14.6-45.5c5.4-15.6,11.7-31.2,18.3-46.9c6.8-15.5,14.4-30.8,22.5-45.5c8.3-14.5,17.2-28.5,26.8-41.3
			c9.8-12.5,19.6-24.7,30.3-34.8c5.1-5.4,10.7-9.8,15.9-14.5c5.3-4.5,10.8-8.5,16-12.5c5.5-3.5,10.7-7.2,15.9-10.4
			c5.3-3,10.3-6.1,15.3-8.6c5.1-2.4,9.9-4.7,14.5-7c4.7-1.9,9.2-3.7,13.4-5.4c4.2-1.8,8.2-2.9,12-4.1c3.7-1.2,7.2-2.3,10.3-3.2
			C358.4,89.2,365.6,87.5,365.6,87.5z"/>
		<path class="st1" d="M113,389.5c3.8-5.5,7.5-11.1,11.4-16.5c3.9-5.4,7.7-10.8,11.7-16c3.9-5.3,8-10.5,12-15.6
			c2-2.6,4.1-5.1,6.2-7.6c2.1-2.5,4.1-5.1,6.2-7.5c4.2-4.9,8.5-9.8,12.8-14.6c4.3-4.8,8.7-9.5,13.2-14.1c4.4-4.6,8.9-9.1,13.5-13.5
			c4.5-4.4,9.2-8.7,13.9-12.7l1.4-1.2l-0.3-2.2c-0.4-2.7-0.7-5.5-1-8.1c-0.2-2.6-0.3-5.6,0-7.1c0.1-0.8,1.6-2.4,3.3-3.6
			c1.7-1.2,3.6-2.3,5.6-3.2c4-1.9,8.2-3.6,12.5-5.6c2.1-1,4.3-2.2,6.5-3.8c1.1-0.9,2.2-1.8,3.2-3.3l2.1-3.1c2.9-4.2,5.8-8,8.8-11.8
			l4.6-5.6l4.8-5.3c3.3-3.5,6.6-6.9,10.1-10.1c3.4-3.2,7-6.3,10.6-9.2c3.6-3,7.3-5.7,11-8.4c3.7-2.7,7.5-5.3,11.4-7.7
			c3.9-2.4,7.8-4.7,11.8-6.9c4-2.2,8-4.2,12.1-6.1c8.1-3.8,16.5-7,24.9-9.8c4.2-1.4,8.5-2.6,12.8-3.7c4.2-1.1,8.7-2,12.8-2.6
			l21.7-3.2l-21.5-7.6l-31.2-11.1l-0.2,10.9l73.3-8.7l19.9-2.4l-19.4-8.6l-29.7-13.1l-0.9,11.1l39.4-0.6c13.1-0.2,26.3-0.4,39.4-0.7
			l19.6-0.5l-18.2-10.7c-5.9-3.4-11.5-6.3-17.3-9.1c-5.8-2.7-11.6-5.3-17.5-7.6c-11.7-4.7-23.6-8.6-35.6-11.7
			c-24-6.2-48.4-9.3-72.5-8.2c-24.1,1.2-48.1,6.6-70.3,17.1c-11.1,5.4-21.8,11.9-31.8,19.6c-2.5,2-5,3.9-7.4,6l-1.8,1.6l-0.9,0.8
			l-0.5,0.4l-0.1,0.1l-0.4,0.4l0,0.1l-0.1,0.1l-0.3,0.5c-0.5,0.9-0.5,1-0.7,1.4l-0.3,0.8l-0.5,1.5l-0.7,2.8
			c-1.8,7.3-3.2,14.4-4.5,21.7l6.7,0.7c-0.6-3.4-1.2-6.7-2-10.2c-0.4-1.7-0.8-3.4-1.6-5.5c-0.2-0.5-0.4-1.1-0.8-1.8l-0.3-0.6
			c-0.2-0.2-0.4-0.5-0.5-0.7c-0.2-0.2-0.6-0.6-0.9-0.8c-0.4-0.3-1-0.5-1.6-0.6c-1.3-0.2-2.4,0.7-2.8,1.1l-0.4,0.4l-0.7,0.8
			c-2,2.2-3.8,4-5.8,6.4l-5.6,6.6c-1.9,2.2-3.6,4.7-5.4,7c-1.8,2.3-3.6,4.7-5.2,7.2l-5,7.4l-4.7,7.7c-3.3,5-6,10.5-9,15.8
			c-2.8,5.4-5.6,10.9-8.2,16.5c-2.5,5.7-5.2,11.2-7.4,17c-2.4,5.8-4.6,11.6-6.7,17.5l-3.1,8.9l-2.8,9.1c-2,6-3.7,12.1-5.4,18.3
			c-1.8,6.1-3.3,12.3-4.8,18.5c-1.6,6.2-3,12.5-4.3,18.8l-2,9.4l-1.8,9.5c-1.2,6.3-2.4,12.7-3.3,19.1c-0.9,6.4-2.1,12.8-2.8,19.3
			l-2.5,19.4l3.1-19.1c1-6.4,2.3-12.7,3.5-19c1.1-6.4,2.5-12.6,3.8-18.9l2-9.4l2.3-9.3c1.5-6.2,3-12.4,4.7-18.4
			c1.6-6.1,3.3-12.2,5.2-18.2c1.8-6,3.7-12,5.8-17.8l3-8.8l3.3-8.6c2.1-5.8,4.6-11.4,7-17c2.3-5.7,5-11.1,7.6-16.6
			c2.6-5.4,5.5-10.7,8.3-15.9c3-5.1,5.8-10.4,9.1-15.2l4.8-7.4l5-7c1.6-2.4,3.4-4.6,5.2-6.8c1.8-2.2,3.4-4.5,5.3-6.6l5.7-6.4
			c1.7-1.9,3.8-4,5.7-6.1l0.7-0.8l0.4-0.4c-0.2,0.2-0.9,0.9-1.9,0.7c-0.4,0-0.9-0.3-1.1-0.4c-0.2-0.1-0.4-0.4-0.5-0.4
			c-0.1-0.1-0.1-0.2-0.2-0.2c0,0,0,0,0,0c0,0,0.1,0.2,0.2,0.4c0.4,1,0.8,2.6,1.1,4c0.7,3,1.3,6.2,1.8,9.4l3,19.6l3.7-18.9
			c1.4-7.1,2.8-14.3,4.5-21l0.7-2.4l0.3-1.1l0.2-0.4c0,0,0.2-0.3-0.1,0.2c-0.1,0.1-0.1,0.2-0.2,0.2l0.1-0.1l0-0.1
			c0.1-0.1-0.7,0.7-0.3,0.3l0.1-0.1l0.4-0.4l0.9-0.7l1.8-1.5c2.4-2,4.8-3.8,7.3-5.6c9.9-7.2,20.2-13.2,31-18.1
			c21.5-9.9,44.6-15,68-15.9c23.4-0.9,47.1,2.3,70.4,8.5c11.7,3.1,23.2,7,34.6,11.7c5.7,2.3,11.4,4.8,17,7.5
			c5.6,2.7,11.2,5.6,16.5,8.7l1.5-11.2c-13.1,0.2-26.2,0.5-39.4,0.8L394,99l-25,0.6l24.1,10.5l29.8,13l0.5-10.9l-73.3,8.8l-23.4,2.8
			l23.2,8.1l31.2,10.9l0.2-10.8c-4.7,0.7-9.1,1.8-13.6,2.9c-4.4,1.2-8.8,2.5-13.2,3.9c-8.7,2.9-17.2,6.3-25.6,10.3
			c-4.2,2-8.3,4.1-12.4,6.4c-4.1,2.2-8.1,4.6-12.1,7.2c-4,2.5-7.9,5.2-11.7,8c-1.9,1.4-3.8,2.8-5.7,4.4c-1.9,1.5-3.7,3-5.6,4.6
			c-3.7,3.1-7.3,6.4-10.8,9.9c-3.5,3.4-6.9,7-10.2,10.7l-4.9,5.7l-4.7,5.9c-3.1,4.1-6.1,8.3-8.9,12.5l-2.1,3.2
			c-0.4,0.6-1,1.2-1.8,1.9c-1.6,1.2-3.5,2.3-5.4,3.3c-4,2-8.2,3.7-12.4,5.8c-2.1,1.1-4.2,2.3-6.3,3.8c-1,0.8-2.1,1.7-3.1,2.8
			c-0.5,0.5-1.1,1.4-1.5,2.1c-0.2,0.2-1,2-1.1,3c-0.4,2.1-0.3,3.6-0.3,5.2c0.1,1.6,0.2,3.1,0.3,4.6c0.3,3,0.7,5.8,1.3,8.8l1-3.4
			c-4.8,4.3-9.4,8.8-13.9,13.4c-4.5,4.6-9,9.3-13.3,14.2c-4.3,4.8-8.6,9.8-12.8,14.9c-4.2,5-8.3,10.2-12.4,15.4
			c-2.1,2.6-4,5.3-6,7.9c-2,2.6-4,5.3-5.9,8c-3.9,5.4-7.8,10.8-11.5,16.3c-3.8,5.4-7.4,11.2-11.1,16.8
			C120,377.9,116.6,383.7,113,389.5z"/>
	</g>
</g>
</svg>
